<?xml version="1.0" encoding="UTF-8"?>
<svg width="20px" height="20px" viewBox="0 0 20 20" version="1.1" xmlns="http://www.w3.org/2000/svg" xmlns:xlink="http://www.w3.org/1999/xlink">
    <!-- Generator: sketchtool 46.1 (44463) - http://www.bohemiancoding.com/sketch -->
    <title>117CA635-31BB-47F7-BF1D-8B8A611EA72A</title>
    <desc>Created with sketchtool.</desc>
    <defs></defs>
    <g id="message_system" stroke="none" stroke-width="1" fill="none" fill-rule="evenodd">
        <g transform="translate(-1230.000000, -30.000000)" id="Combined-Shape" fill="#FFFFFF">
            <path d="M1246.58579,39 L1244.05025,36.4644661 C1243.65973,36.0739418 1243.65973,35.4407768 1244.05025,35.0502525 C1244.44078,34.6597282 1245.07394,34.6597282 1245.46447,35.0502525 L1249.70711,39.2928932 C1249.75592,39.3417088 1249.79864,39.3943156 1249.83525,39.4497658 C1250.01831,39.7270478 1250.04881,40.0753677 1249.92678,40.376301 C1249.87081,40.5088835 1249.79759,40.6166246 1249.70711,40.7071068 L1245.46447,44.9497475 C1245.07394,45.3402718 1244.44078,45.3402718 1244.05025,44.9497475 C1243.65973,44.5592232 1243.65973,43.9260582 1244.05025,43.5355339 L1246.58579,41 L1237,41 C1236.44772,41 1236,40.5522847 1236,40 C1236,39.4477153 1236.44772,39 1237,39 L1246.58579,39 Z M1232,48 L1239,48 C1239.55228,48 1240,48.4477153 1240,49 C1240,49.5522847 1239.55228,50 1239,50 L1231,50 C1230.72386,50 1230.47386,49.8880712 1230.29289,49.7071068 C1230.11193,49.5261424 1230,49.2761424 1230,49 L1230,31 L1230,31 C1230,30.7238576 1230.11193,30.4738576 1230.29289,30.2928932 C1230.47386,30.1119288 1230.72386,30 1231,30 L1231,30 L1239,30 C1239.55228,30 1240,30.4477153 1240,31 L1240,31 C1240,31.5522847 1239.55228,32 1239,32 L1232,32 L1232,48 Z"></path>
        </g>
    </g>
</svg>