<?xml version="1.0" encoding="UTF-8"?>
<svg width="19px" height="20px" viewBox="0 0 19 20" version="1.1" xmlns="http://www.w3.org/2000/svg" xmlns:xlink="http://www.w3.org/1999/xlink">
    <!-- Generator: sketchtool 46.1 (44463) - http://www.bohemiancoding.com/sketch -->
    <title>58223771-A04C-40F1-BD0D-FE8BA8246BEF</title>
    <desc>Created with sketchtool.</desc>
    <defs></defs>
    <g id="message_system" stroke="none" stroke-width="1" fill="none" fill-rule="evenodd">
        <g transform="translate(-1142.000000, -810.000000)" id="paperclip" fill-rule="nonzero" fill="#000000">
            <g transform="translate(1142.000000, 810.000000)">
                <path d="M4.13639723,19.9848037 C3.03431871,19.9848037 1.99819861,19.555612 1.21893764,18.776351 C-0.389745958,17.1676674 -0.389745958,14.5501155 1.21893764,12.9414319 L10.4762587,3.68411085 C11.5684988,2.59182448 13.3458661,2.59182448 14.4381062,3.68411085 C15.5303926,4.77639723 15.5303926,6.55371824 14.4381062,7.64600462 L7.62882217,14.4552887 C7.35829099,14.7258661 6.9195843,14.7258661 6.64900693,14.4552887 C6.37842956,14.1847113 6.37842956,13.7460508 6.64900693,13.4754734 L13.458291,6.66614319 C14.0103002,6.11413395 14.0103002,5.21593533 13.458291,4.6639261 C13.1908545,4.39648961 12.8353349,4.24923788 12.4571824,4.24923788 C12.07903,4.24923788 11.7234642,4.39648961 11.4560739,4.6639261 L2.19875289,13.9212471 C1.13034642,14.9896536 1.13034642,16.7281293 2.19875289,17.7965358 C2.71635104,18.3140878 3.40448037,18.5991224 4.13639723,18.5991224 C4.86831409,18.5991224 5.55648961,18.3140878 6.07404157,17.7965358 L15.5486374,8.32193995 C16.316351,7.55422633 16.7391224,6.53353349 16.7391224,5.447806 C16.7391224,4.36207852 16.316351,3.34138568 15.5486374,2.57367206 C13.9637875,0.988822171 11.385127,0.98886836 9.80032333,2.57367206 L2.77376443,9.60018476 C2.50323326,9.87076212 2.06452656,9.87076212 1.79394919,9.60018476 C1.52337182,9.32960739 1.52337182,8.89094688 1.79394919,8.62036952 L8.82050808,1.59381062 C10.9455889,-0.531270208 14.4033718,-0.531270208 16.5284527,1.59381062 C17.5579215,2.62323326 18.1248499,3.99196305 18.1248499,5.447806 C18.1248499,6.90364896 17.5579215,8.27233256 16.5284527,9.30180139 L7.05385681,18.776351 C6.27459584,19.5556582 5.23847575,19.9848037 4.13639723,19.9848037 Z" id="Shape"></path>
            </g>
        </g>
    </g>
</svg>