<?xml version="1.0" encoding="UTF-8"?>
<svg width="20px" height="20px" viewBox="0 0 20 20" version="1.1" xmlns="http://www.w3.org/2000/svg" xmlns:xlink="http://www.w3.org/1999/xlink">
    <!-- Generator: sketchtool 46.1 (44463) - http://www.bohemiancoding.com/sketch -->
    <title>A9C53025-B847-47F5-8AF4-C9F552531DCE</title>
    <desc>Created with sketchtool.</desc>
    <defs></defs>
    <g id="symbols" stroke="none" stroke-width="1" fill="none" fill-rule="evenodd">
        <g id="search" fill-rule="nonzero" fill="#4A90E2">
            <path d="M19.0155531,18.2168311 L14.2555208,13.2661588 C15.4794088,11.8112558 16.1499842,9.98069024 16.1499842,8.0749921 C16.1499842,3.62251167 12.5274725,0 8.0749921,0 C3.62251167,0 0,3.62251167 0,8.0749921 C0,12.5274725 3.62251167,16.1499842 8.0749921,16.1499842 C9.74651547,16.1499842 11.3393954,15.6458238 12.7012604,14.6887617 L17.4974546,19.6770003 C17.6979251,19.8851947 17.9675596,20 18.2565039,20 C18.5300004,20 18.7894534,19.8957273 18.9864129,19.7061405 C19.4049082,19.3034442 19.4182495,18.6356774 19.0155531,18.2168311 Z M8.0749921,2.10651968 C11.366078,2.10651968 14.0434645,4.78390619 14.0434645,8.0749921 C14.0434645,11.366078 11.366078,14.0434645 8.0749921,14.0434645 C4.78390619,14.0434645 2.10651968,11.366078 2.10651968,8.0749921 C2.10651968,4.78390619 4.78390619,2.10651968 8.0749921,2.10651968 Z" id="Shape"></path>
        </g>
    </g>
</svg>