<?xml version="1.0"?>
<!--Icons from directory ""-->
<svg xmlns="http://www.w3.org/2000/svg" width="32" height="124" viewBox="0 0 32 124"><svg xmlns:xlink="http://www.w3.org/1999/xlink" id="arrow" style="enable-background:new 0 0 32 32" xml:space="preserve" height="32" viewBox="0 0 32 32" width="32" version="1.1" y="0"><path d="m28 14h-19.2l4.62-4.62c0.394-0.394 0.58-0.864 0.58-1.38 0-0.984-0.813-2-2-2-0.531 0-0.994 0.193-1.38 0.58l-7.958 7.958c-0.328 0.328-0.662 0.733-0.662 1.462s0.279 1.08 0.646 1.447l7.974 7.973c0.386 0.387 0.849 0.58 1.38 0.58 1.188 0 2-1.016 2-2 0-0.516-0.186-0.986-0.58-1.38l-4.62-4.62h19.2c1.104 0 2-0.896 2-2s-0.896-2-2-2z" fill="#fff"/></svg><svg xmlns:xlink="http://www.w3.org/1999/xlink" id="hamb" style="enable-background:new 0 0 32 32" xml:space="preserve" height="32" viewBox="0 0 32 32" width="32" version="1.1" y="32"><path d="m4 10h24c1.104 0 2-0.896 2-2s-0.896-2-2-2h-24c-1.104 0-2 0.896-2 2s0.896 2 2 2zm24 4h-24c-1.104 0-2 0.896-2 2s0.896 2 2 2h24c1.104 0 2-0.896 2-2s-0.896-2-2-2zm0 8h-24c-1.104 0-2 0.896-2 2s0.896 2 2 2h24c1.104 0 2-0.896 2-2s-0.896-2-2-2z" fill="#fff"/></svg><svg xmlns:xlink="http://www.w3.org/1999/xlink" height="20" width="20" version="1.1" viewBox="0 0 20 20" id="logout" y="64"><title>117CA635-31BB-47F7-BF1D-8B8A611EA72A</title><desc>Created with sketchtool.</desc><g id="logout-message_system" fill-rule="evenodd" fill="none"><g id="logout-Combined-Shape" fill="#fff" transform="translate(-1230 -30)"><path d="m1246.6 39l-2.5-2.536c-0.4-0.39-0.4-1.023 0-1.414 0.3-0.39 1-0.39 1.4 0l4.2 4.243c0.1 0.049 0.1 0.101 0.1 0.157 0.2 0.277 0.2 0.625 0.1 0.926 0 0.133-0.1 0.241-0.2 0.331l-4.2 4.243c-0.4 0.39-1.1 0.39-1.4 0-0.4-0.391-0.4-1.024 0-1.414l2.5-2.536h-9.6c-0.6 0-1-0.448-1-1s0.4-1 1-1h9.6zm-14.6 9h7c0.6 0 1 0.448 1 1s-0.4 1-1 1h-8c-0.3 0-0.5-0.112-0.7-0.293s-0.3-0.431-0.3-0.707v-18c0-0.276 0.1-0.526 0.3-0.707s0.4-0.293 0.7-0.293h8c0.6 0 1 0.448 1 1s-0.4 1-1 1h-7v16z"/></g></g></svg><svg xmlns:xlink="http://www.w3.org/1999/xlink" height="20" width="19" version="1.1" viewBox="0 0 19 20" id="paperclip" y="84"><title>58223771-A04C-40F1-BD0D-FE8BA8246BEF</title><desc>Created with sketchtool.</desc><g id="paperclip-message_system" fill-rule="evenodd" fill="none"><g id="paperclip-paperclip" fill-rule="nonzero" fill="#000" transform="translate(-1142 -810)"><g transform="translate(1142 810)"><path id="paperclip-Shape" d="m4.1364 19.985c-1.1021 0-2.1382-0.429-2.9175-1.209-1.6086-1.608-1.6086-4.226 0-5.835l9.2571-9.2569c1.092-1.0923 2.87-1.0923 3.962 0s1.092 2.8696 0 3.9619l-6.8092 6.809c-0.2705 0.271-0.7092 0.271-0.9798 0-0.2706-0.27-0.2706-0.709 0-0.98l6.809-6.8089c0.552-0.552 0.552-1.4502 0-2.0022-0.267-0.2674-0.623-0.4147-1.001-0.4147s-0.734 0.1473-1.001 0.4147l-9.2572 9.2571c-1.0685 1.069-1.0685 2.807 0 3.876 0.5176 0.517 1.2057 0.802 1.9376 0.802s1.4201-0.285 1.9376-0.802l9.475-9.4751c0.767-0.7677 1.19-1.7884 1.19-2.8741s-0.423-2.1064-1.19-2.8741c-1.585-1.5849-4.164-1.5848-5.7487 0l-7.0265 7.0265c-0.2706 0.2706-0.7093 0.2706-0.9799 0-0.2705-0.2706-0.2705-0.7093 0-0.9798l7.0266-7.0266c2.1255-2.1251 5.5825-2.1251 7.7075 0 1.03 1.0294 1.597 2.3982 1.597 3.854s-0.567 2.8245-1.597 3.854l-9.4741 9.4742c-0.7793 0.78-1.8154 1.209-2.9175 1.209z"/></g></g></g></svg><svg xmlns:xlink="http://www.w3.org/1999/xlink" height="20" width="20" version="1.1" viewBox="0 0 20 20" id="search" y="104"><title>A9C53025-B847-47F5-8AF4-C9F552531DCE</title><desc>Created with sketchtool.</desc><g id="search-symbols" fill-rule="evenodd" fill="none"><g id="search-search" fill="#4A90E2" fill-rule="nonzero"><path id="search-Shape" d="m19.016 18.217l-4.76-4.951c1.223-1.455 1.894-3.2853 1.894-5.191 0-4.4525-3.623-8.075-8.075-8.075-4.4525 0-8.075 3.6225-8.075 8.075 0 4.452 3.6225 8.075 8.075 8.075 1.6715 0 3.264-0.504 4.626-1.461l4.796 4.988c0.201 0.208 0.471 0.323 0.76 0.323 0.273 0 0.532-0.104 0.729-0.294 0.419-0.403 0.432-1.07 0.03-1.489zm-10.941-16.11c3.291 0 5.968 2.6774 5.968 5.9685 0 3.291-2.677 5.968-5.968 5.968-3.2911 0-5.9685-2.677-5.9685-5.968 0-3.2911 2.6774-5.9685 5.9685-5.9685z"/></g></g></svg></svg>
