<svg xmlns="http://www.w3.org/2000/svg" width="32" height="124" viewBox="0 0 32 124"><svg xmlns:xlink="http://www.w3.org/1999/xlink" height="32" viewBox="0 0 32 32" width="32"><path d="M28 14H8.8l4.62-4.62c.394-.394.58-.864.58-1.38 0-.984-.813-2-2-2-.531 0-.994.193-1.38.58l-7.958 7.958C2.334 14.866 2 15.271 2 16s.279 1.08.646 1.447l7.974 7.973c.386.387.849.58 1.38.58 1.188 0 2-1.016 2-2 0-.516-.186-.986-.58-1.38L8.8 18H28a2 2 0 0 0 0-4z" fill="#fff"/></svg><svg xmlns:xlink="http://www.w3.org/1999/xlink" height="32" viewBox="0 0 32 32" width="32" y="32"><path d="M4 10h24a2 2 0 0 0 0-4H4a2 2 0 0 0 0 4zm24 4H4a2 2 0 0 0 0 4h24a2 2 0 0 0 0-4zm0 8H4a2 2 0 0 0 0 4h24a2 2 0 0 0 0-4z" fill="#fff"/></svg><svg xmlns:xlink="http://www.w3.org/1999/xlink" height="20" width="20" viewBox="0 0 20 20" y="64"><title>117CA635-31BB-47F7-BF1D-8B8A611EA72A</title><path d="M16.6 9l-2.5-2.536a.983.983 0 0 1 0-1.414c.3-.39 1-.39 1.4 0l4.2 4.243c.1.049.1.101.1.157.2.277.2.625.1.926 0 .133-.1.241-.2.331l-4.2 4.243c-.4.39-1.1.39-1.4 0a.983.983 0 0 1 0-1.414L16.6 11H7c-.6 0-1-.448-1-1s.4-1 1-1h9.6zM2 18h7c.6 0 1 .448 1 1s-.4 1-1 1H1c-.3 0-.5-.112-.7-.293S0 19.276 0 19V1C0 .724.1.474.3.293S.7 0 1 0h8c.6 0 1 .448 1 1s-.4 1-1 1H2v16z" fill="#fff" fill-rule="evenodd"/></svg><svg xmlns:xlink="http://www.w3.org/1999/xlink" height="20" width="19" viewBox="0 0 19 20" y="84"><title>58223771-A04C-40F1-BD0D-FE8BA8246BEF</title><path d="M4.136 19.985a4.097 4.097 0 0 1-2.917-1.209 4.13 4.13 0 0 1 0-5.835l9.257-9.257c1.092-1.092 2.87-1.092 3.962 0s1.092 2.87 0 3.962l-6.81 6.809a.692.692 0 1 1-.979-.98l6.809-6.809a1.417 1.417 0 0 0-1.001-2.417c-.378 0-.734.147-1.001.415L2.199 13.92a2.744 2.744 0 0 0 0 3.876c.517.517 1.206.802 1.937.802s1.42-.285 1.938-.802l9.475-9.475c.767-.768 1.19-1.789 1.19-2.874s-.423-2.107-1.19-2.874a4.07 4.07 0 0 0-5.749 0L2.774 9.6a.693.693 0 0 1-.98-.98L8.82 1.594a5.456 5.456 0 0 1 7.708 0c1.03 1.03 1.597 2.398 1.597 3.854s-.567 2.824-1.597 3.854l-9.474 9.474a4.097 4.097 0 0 1-2.918 1.209z"/></svg><svg xmlns:xlink="http://www.w3.org/1999/xlink" height="20" width="20" viewBox="0 0 20 20" y="104"><title>A9C53025-B847-47F5-8AF4-C9F552531DCE</title><path d="M19.016 18.217l-4.76-4.951a8.053 8.053 0 0 0 1.894-5.191C16.15 3.623 12.527 0 8.075 0 3.623 0 0 3.623 0 8.075c0 4.452 3.623 8.075 8.075 8.075a7.988 7.988 0 0 0 4.626-1.461l4.796 4.988c.201.208.471.323.76.323a1.054 1.054 0 0 0 .759-1.783zM8.075 2.107a5.975 5.975 0 0 1 5.968 5.968 5.974 5.974 0 0 1-5.968 5.968 5.975 5.975 0 0 1-5.969-5.968 5.975 5.975 0 0 1 5.969-5.968z" fill="#4A90E2"/></svg></svg>